#tb 0: 1/25
0,          0,          0,        1,     1600, 0x01a481a9
0,          1,          1,        1,     1600, 0x01a481a9
0,          2,          2,        1,     1600, 0x01a481a9
0,          3,          3,        1,     1600, 0x01a481a9
